# Blender v2.91.0 OBJ File: ''
# www.blender.org
mtllib frame.mtl
o Cube_Cube.001
v -0.869364 -0.869364 -0.138433
v -0.869364 0.869364 -0.138433
v 0.869364 -0.869364 -0.138433
v 0.869364 0.869364 -0.138433
v -1.000000 1.000000 -0.138433
v -1.000000 -1.000000 -0.138433
v 1.000000 -1.000000 -0.138433
v 1.000000 1.000000 -0.138433
v -1.000000 1.000000 -0.295022
v -1.000000 -1.000000 -0.295022
v 1.000000 -1.000000 -0.295022
v 1.000000 1.000000 -0.295022
v -0.869364 0.869364 -0.295022
v -0.869364 -0.869364 -0.295022
v 0.869364 -0.869364 -0.295022
v 0.869364 0.869364 -0.295022
vt 0.608671 0.266329
vt 0.625000 0.250000
vt 0.375000 0.250000
vt 0.391329 0.266329
vt 0.375000 0.500000
vt 0.391329 0.483671
vt 0.608671 0.483671
vt 0.625000 0.500000
vt 0.608671 0.266329
vt 0.391329 0.266329
vt 0.375000 0.250000
vt 0.625000 0.250000
vt 0.391329 0.483671
vt 0.375000 0.500000
vt 0.608671 0.483671
vt 0.625000 0.500000
vn -0.0000 0.0000 1.0000
vn 0.0000 0.0000 -1.0000
vn 1.0000 0.0000 0.0000
vn 0.0000 -1.0000 0.0000
vn 0.0000 1.0000 0.0000
vn -1.0000 0.0000 0.0000
usemtl None
s off
f 2/1/1 5/2/1 6/3/1 1/4/1
f 1/4/1 6/3/1 7/5/1 3/6/1
f 4/7/1 8/8/1 5/2/1 2/1/1
f 3/6/1 7/5/1 8/8/1 4/7/1
f 13/9/2 14/10/2 10/11/2 9/12/2
f 14/10/2 15/13/2 11/14/2 10/11/2
f 16/15/2 13/9/2 9/12/2 12/16/2
f 15/13/2 16/15/2 12/16/2 11/14/2
f 8/8/3 7/5/3 11/14/3 12/16/3
f 7/5/4 6/3/4 10/11/4 11/14/4
f 4/7/4 2/1/4 13/9/4 16/15/4
f 2/1/3 1/4/3 14/10/3 13/9/3
f 5/2/5 8/8/5 12/16/5 9/12/5
f 6/3/6 5/2/6 9/12/6 10/11/6
f 3/6/6 4/7/6 16/15/6 15/13/6
f 1/4/5 3/6/5 15/13/5 14/10/5
